# xmcd CD database file
#
# Track frame offsets:
#	150
#	15457
#	35904
#	50175
#	63341
#	79283
#
# Disc length: 1309 seconds
#
# Revision: 0
# Processed by: cddbd v1.5.1PL0 Copyright (c) Steve Scherf et al.
# Submitted via: CDex 1.51
#
DISCID=4f051b06
DTITLE=Barrelhouse Bonnie - A Blues Sampler
DYEAR=2001
DGENRE=Blues
TTITLE0=woman be wise
TTITLE1=summertime
TTITLE2=see seee rider
TTITLE3=dry blues
TTITLE4=little red rooster
TTITLE5=memphis in may
EXTD=YEAR: 2001
EXTT0=
EXTT1=
EXTT2=
EXTT3=
EXTT4=
EXTT5=
PLAYORDER=
